<?xml version="1.0" standalone="no"?>
<!DOCTYPE svg PUBLIC "-//W3C//DTD SVG 20010904//EN"
 "http://www.w3.org/TR/2001/REC-SVG-20010904/DTD/svg10.dtd">
<svg version="1.0" xmlns="http://www.w3.org/2000/svg"
 width="2474.000000pt" height="2474.000000pt" viewBox="0 0 2474.000000 2474.000000"
 preserveAspectRatio="xMidYMid meet">
<metadata>
Created by potrace 1.16, written by Peter Selinger 2001-2019
</metadata>
<g transform="translate(0.000000,2474.000000) scale(0.100000,-0.100000)"
fill="#000000" stroke="none">
<path d="M11665 24022 c-6 -4 -19 -25 -30 -47 -70 -141 -108 -197 -159 -234
-51 -38 -136 -126 -136 -141 0 -4 -30 -32 -67 -63 -38 -30 -79 -73 -93 -97
-38 -64 -74 -103 -117 -125 -123 -64 -155 -87 -149 -109 3 -11 14 -55 25 -96
21 -74 21 -95 21 -2712 0 -2367 -2 -2648 -16 -2745 -9 -59 -19 -110 -23 -113
-3 -3 -15 -24 -26 -48 -21 -44 -57 -64 -78 -43 -6 6 -21 11 -33 11 -23 0 -64
56 -64 89 0 9 -4 21 -10 27 -9 9 -17 45 -29 139 -5 44 -9 50 -36 58 -16 5 -38
13 -47 18 -10 5 -31 9 -48 9 -23 0 -35 7 -50 33 -18 28 -20 50 -20 189 0 152
-1 158 -22 172 -13 8 -37 17 -55 21 -17 3 -43 17 -57 30 -13 12 -27 21 -29 19
-2 -3 -10 23 -17 56 -14 66 -34 87 -103 110 -48 15 -73 42 -103 108 -16 34
-35 59 -56 71 -75 45 -109 75 -135 119 -30 53 -62 92 -75 92 -27 0 -102 67
-130 116 -30 55 -49 72 -111 103 -30 15 -67 59 -112 132 -11 18 -40 43 -65 56
-59 31 -92 64 -118 117 -25 50 -41 65 -102 99 -42 23 -78 62 -125 138 -11 17
-40 43 -65 56 -61 34 -86 58 -111 110 -20 42 -61 83 -82 83 -6 0 -51 17 -101
37 -68 28 -104 51 -155 98 -95 87 -111 92 -223 70 -88 -17 -152 -17 -269 1
-34 5 -40 2 -70 -36 -80 -98 -96 -113 -148 -138 -37 -17 -81 -51 -126 -98 -38
-40 -88 -81 -110 -91 -100 -47 -163 -89 -201 -132 -39 -43 -134 -101 -166
-101 -26 0 -105 -57 -126 -91 -11 -19 -42 -52 -68 -74 -29 -25 -58 -62 -76
-100 -36 -76 -61 -103 -131 -148 -43 -28 -60 -47 -77 -84 -26 -59 -41 -76
-112 -124 -39 -27 -63 -53 -80 -85 -22 -45 -111 -134 -134 -134 -11 0 -54 -42
-54 -53 0 -25 -63 -94 -121 -133 -43 -29 -74 -57 -84 -78 -21 -44 -67 -90
-137 -138 -32 -21 -58 -44 -58 -51 0 -22 -89 -114 -140 -146 -35 -22 -56 -44
-74 -79 -22 -44 -135 -162 -156 -162 -4 0 -20 -19 -34 -42 -27 -47 -88 -112
-130 -141 -15 -10 -49 -47 -76 -82 -28 -34 -75 -82 -106 -106 -31 -23 -76 -69
-101 -101 -24 -32 -69 -76 -98 -98 -29 -21 -74 -66 -99 -98 -26 -32 -75 -82
-110 -110 -34 -28 -76 -71 -92 -94 -55 -83 -120 -152 -493 -527 -477 -480
-548 -553 -598 -622 -23 -31 -63 -72 -90 -91 -26 -19 -64 -54 -83 -77 -19 -24
-55 -62 -79 -84 -24 -23 -72 -71 -107 -107 -69 -71 -85 -87 -187 -188 -37 -37
-84 -85 -105 -107 -21 -22 -82 -64 -135 -94 -53 -29 -97 -54 -97 -56 0 -3 35
-84 56 -133 9 -18 19 -56 24 -85 5 -29 9 -2000 9 -4465 1 -3764 3 -4416 15
-4435 8 -12 23 -38 33 -57 37 -70 67 -106 128 -155 34 -27 77 -70 96 -95 19
-24 45 -53 59 -65 42 -34 253 -242 483 -475 89 -91 178 -179 197 -196 19 -16
50 -50 69 -75 19 -25 55 -61 80 -80 25 -19 59 -50 76 -69 32 -38 94 -99 116
-115 68 -49 89 -68 89 -81 0 -7 4 -14 8 -14 5 0 21 -29 36 -64 22 -51 32 -65
54 -69 58 -12 132 -106 132 -167 0 -11 6 -23 13 -25 7 -3 876 -7 1932 -9 1056
-2 1930 -5 1943 -6 30 -3 82 19 82 34 0 6 16 28 36 48 66 68 184 88 549 92
271 3 336 11 374 47 12 11 21 30 21 42 0 28 49 83 87 98 15 6 71 13 123 15
108 5 210 23 210 35 0 5 10 9 22 9 12 0 19 3 15 6 -15 15 51 124 76 124 16 0
99 89 92 100 -3 5 -2 10 3 10 5 0 14 10 21 23 10 19 55 47 84 51 4 0 30 25 57
55 34 37 48 60 45 72 -3 10 -1 20 5 24 5 3 10 17 10 30 0 24 6 28 66 40 26 5
35 14 47 48 9 23 18 65 20 92 9 90 32 125 84 125 21 0 36 6 39 15 4 8 14 15
24 15 30 0 74 180 87 358 3 53 8 72 19 72 16 0 56 -20 65 -34 8 -11 31 2 24
13 -6 11 70 21 156 21 l68 0 73 -59 c40 -32 97 -89 127 -125 30 -36 71 -77 90
-91 20 -13 50 -41 66 -61 17 -21 55 -60 85 -88 30 -28 79 -78 110 -111 30 -32
77 -80 105 -105 57 -52 100 -95 171 -171 56 -60 112 -109 124 -109 5 0 11 -9
15 -20 7 -23 133 -150 149 -150 6 0 24 -18 40 -40 17 -22 33 -40 38 -40 4 0 8
-6 8 -14 0 -8 15 -25 33 -38 56 -39 59 -42 103 -85 24 -24 55 -65 68 -91 20
-40 32 -51 66 -62 70 -23 102 -65 114 -152 4 -26 13 -51 19 -55 14 -9 1969 -6
2075 3 43 4 72 11 72 18 0 6 22 21 49 34 42 19 50 27 56 59 4 21 11 333 14
693 4 360 8 656 9 657 33 43 107 83 156 83 32 0 96 -51 129 -103 33 -51 89
-107 108 -107 14 0 89 -71 89 -85 0 -22 42 -66 117 -122 45 -33 80 -68 92 -92
19 -37 92 -111 110 -111 16 0 77 -63 94 -96 17 -33 70 -82 136 -126 22 -15 49
-44 60 -65 27 -50 61 -88 98 -107 36 -18 103 -81 103 -96 0 -6 21 -33 46 -60
35 -37 54 -50 75 -50 82 0 128 -58 149 -190 6 -41 15 -88 19 -105 l7 -30 2846
-3 c1565 -1 2863 1 2883 6 20 4 35 10 33 14 -4 10 73 49 83 42 5 -3 9 4 9 14
0 11 7 38 15 61 12 35 14 200 16 1095 1 972 0 1056 -16 1080 -9 14 -25 28 -36
31 -10 4 -19 12 -19 19 0 8 -7 19 -15 26 -8 7 -15 20 -15 30 0 16 -69 65 -155
111 -17 9 -45 42 -64 73 -19 32 -57 77 -85 99 -27 23 -68 62 -90 86 -23 24
-67 70 -100 101 -32 32 -75 74 -95 94 -20 20 -67 67 -106 105 -38 39 -86 86
-105 106 -19 20 -64 65 -100 100 -36 35 -77 76 -93 92 -74 75 -170 172 -204
204 -21 20 -51 55 -68 77 -16 22 -46 50 -65 63 -36 24 -85 73 -153 153 -25 29
-63 57 -113 81 -42 21 -90 50 -107 66 -17 16 -36 29 -42 30 -30 1 -166 20
-205 28 -103 21 -221 40 -315 51 -158 19 -286 55 -395 111 -68 34 -234 71
-400 89 -117 13 -205 34 -265 62 -22 11 -49 21 -59 24 -29 6 -89 57 -106 90
-8 16 -18 31 -21 34 -29 23 -30 150 -26 4145 3 2217 6 4037 7 4045 1 8 -1 59
-5 113 -8 94 -9 99 -34 109 -14 5 -38 8 -53 6 -16 -3 -29 1 -32 9 -3 7 -18 13
-33 13 -43 0 -49 9 -63 88 -8 40 -16 75 -20 77 -3 2 -26 6 -51 10 -100 13
-113 18 -116 50 -1 17 -8 55 -15 85 l-13 55 -68 8 c-38 4 -77 12 -88 17 -13 7
-19 7 -19 0 0 -5 -4 -10 -10 -10 -14 0 -12 48 2 52 9 3 8 20 -3 68 -17 71 -25
77 -109 79 -25 1 -51 5 -58 10 -15 9 -45 128 -38 147 9 23 -19 41 -84 54 -36
7 -69 17 -74 21 -16 15 -26 10 -26 -11 0 -11 -4 -20 -10 -20 -13 0 -13 16 2
39 9 15 9 34 0 82 -6 34 -16 67 -21 72 -6 6 -43 12 -82 13 -79 3 -77 2 -82 30
-1 10 -5 24 -9 29 -3 6 -9 38 -13 73 -8 73 -16 77 -121 69 -60 -4 -66 -3 -74
17 -4 11 -4 25 1 31 12 12 12 48 0 61 -5 5 -11 27 -13 49 -3 38 -5 40 -43 45
-22 3 -52 3 -67 -1 -29 -8 -58 7 -61 31 -2 8 -6 20 -10 26 -3 6 -10 38 -13 70
-4 33 -12 62 -18 66 -5 4 -33 10 -61 14 -72 9 -104 28 -104 61 0 16 -6 52 -14
82 l-13 55 -55 12 c-30 7 -65 13 -79 14 -33 0 -47 25 -55 96 -7 61 -18 84 -40
84 -7 0 -32 9 -56 19 -47 21 -72 55 -84 111 -10 51 -28 74 -87 114 -29 19 -64
53 -78 76 -55 90 -67 106 -95 119 -52 24 -102 70 -120 108 -23 48 -57 82 -117
116 -29 17 -57 44 -75 73 -46 75 -69 99 -117 123 -54 28 -72 47 -106 109 -14
26 -41 56 -60 69 -92 59 -111 75 -135 122 -22 44 -78 101 -100 101 -20 0 -77
55 -95 91 -30 58 -59 88 -110 114 -51 26 -66 41 -104 108 -30 53 -58 75 -125
97 -44 14 -48 19 -89 102 -44 91 -56 103 -113 113 -43 8 -65 28 -88 81 -23 51
-48 66 -112 66 -35 -1 -52 4 -59 16 -8 13 -13 14 -16 4 -3 -7 -12 -19 -20 -26
-18 -19 -18 -46 1 -46 10 0 15 -11 16 -35 1 -19 2 -39 3 -44 2 -16 90 -81 110
-81 17 0 18 -6 11 -80 -7 -77 -6 -80 14 -80 l21 0 0 -8125 0 -8125 -40 0 c-29
0 -40 -4 -40 -15 0 -11 -11 -15 -40 -15 -22 0 -40 -4 -40 -10 0 -5 -18 -10
-40 -10 -22 0 -40 -4 -40 -10 0 -7 -167 -10 -480 -10 -313 0 -480 3 -480 10 0
6 -18 10 -40 10 -22 0 -40 -4 -40 -10 0 -6 -99 -10 -276 -10 -268 0 -277 1
-295 21 -10 12 -28 20 -41 18 -13 -1 -31 1 -41 6 -9 4 -28 4 -42 1 -14 -4 -25
-2 -25 3 0 5 -8 8 -17 7 -10 -2 -21 2 -25 8 -4 6 -8 3792 -8 8414 0 7995 1
8402 18 8402 16 0 17 -406 14 -8400 -1 -5608 1 -8400 8 -8400 7 0 10 2794 10
8403 0 4621 0 8419 0 8440 0 30 4 37 20 37 17 0 20 7 20 40 0 33 -3 40 -20 40
-29 0 -24 11 20 44 21 16 38 32 37 36 -1 4 12 19 30 34 26 22 33 37 38 81 6
41 11 52 22 48 8 -3 25 5 38 17 13 12 28 20 33 16 16 -9 53 24 47 43 -3 11 3
25 15 36 11 10 20 24 20 32 0 7 6 13 13 13 8 0 22 9 32 20 10 12 24 19 31 16
20 -8 55 24 49 43 -3 11 3 25 15 36 15 14 20 15 20 4 1 -8 10 3 21 24 11 20
28 43 39 50 11 6 20 22 20 34 0 22 4 23 80 23 64 0 80 3 80 15 0 8 7 15 15 15
52 0 91 134 55 185 -4 6 -11 28 -15 50 -3 22 -12 47 -20 55 -7 8 -15 26 -18
40 -4 14 -18 30 -34 37 -84 37 -195 117 -232 167 -22 29 -63 73 -92 97 -28 24
-66 60 -83 79 -17 19 -62 65 -101 102 -38 37 -81 78 -94 92 -41 42 -173 173
-192 192 -11 11 -57 57 -103 104 -46 47 -89 90 -96 97 -9 9 -120 119 -210 210
-124 124 -182 181 -195 193 -9 8 -48 50 -86 93 -39 42 -75 77 -81 77 -5 0 -24
6 -41 14 -18 8 -39 17 -47 20 -26 12 -59 32 -78 49 -9 9 -22 13 -27 9z m5085
-5268 c6 -14 10 -41 10 -60 0 -27 4 -34 20 -34 11 0 20 -7 20 -15 0 -8 11 -26
25 -40 22 -21 35 -25 80 -25 51 0 55 -2 55 -23 0 -13 3 -27 7 -31 4 -4 6 -23
4 -41 -2 -34 16 -65 38 -65 6 0 11 -4 11 -10 0 -5 5 -10 10 -10 6 0 10 6 10
13 0 9 12 11 40 9 39 -4 40 -5 40 -43 0 -32 3 -39 20 -39 17 0 20 -7 20 -41 0
-38 2 -41 23 -37 20 4 23 1 19 -19 -4 -21 -1 -23 37 -23 34 0 41 -3 41 -20 0
-17 7 -20 40 -20 38 0 40 -2 40 -29 0 -16 5 -52 12 -80 9 -38 16 -51 30 -51
10 0 18 -4 18 -10 0 -5 23 -10 50 -10 38 0 50 -4 50 -15 0 -8 7 -15 15 -15 8
0 15 -7 15 -15 0 -8 7 -15 15 -15 11 0 15 -12 15 -51 0 -41 3 -50 15 -45 8 3
28 -7 46 -21 25 -22 32 -24 40 -12 7 11 10 9 15 -8 4 -13 10 -23 15 -23 5 0 9
-21 9 -47 0 -25 3 -44 6 -40 4 3 24 -12 46 -34 26 -26 47 -39 58 -36 15 4 19
-4 25 -39 6 -41 9 -44 36 -44 27 0 29 -2 29 -40 0 -36 2 -40 26 -40 14 0 32
-6 40 -14 8 -8 14 -26 14 -40 0 -24 4 -26 40 -26 l40 0 0 -40 0 -40 40 0 40 0
0 -40 c0 -40 0 -40 39 -40 22 0 43 5 46 10 8 13 25 13 25 0 0 -6 -6 -9 -12 -8
-9 2 -14 -12 -16 -39 l-3 -43 40 0 41 0 0 -40 c0 -40 3 -42 45 -40 14 1 35
-31 35 -54 0 -24 3 -26 45 -26 l45 0 0 -40 c0 -39 1 -40 35 -40 34 0 35 -1 35
-40 0 -29 4 -40 15 -40 12 0 15 -16 15 -80 0 -47 -4 -80 -10 -80 -5 0 -10 -18
-10 -40 0 -29 4 -40 15 -40 13 0 15 -447 15 -3960 0 -3513 -2 -3960 -15 -3960
-11 0 -15 -11 -15 -40 0 -23 5 -40 11 -40 14 0 2 -300 -12 -314 -13 -14 -12
-803 1 -811 14 -8 13 -138 -1 -152 -8 -8 -9 -33 -3 -80 4 -37 7 -71 6 -76 -1
-4 5 -7 13 -7 8 0 15 -4 15 -10 0 -5 21 -20 48 -32 26 -12 50 -26 53 -30 3 -5
10 -8 15 -7 32 6 44 -3 44 -30 0 -16 6 -32 13 -34 9 -4 8 -8 -3 -16 -13 -10
-12 -13 4 -26 11 -8 30 -15 42 -15 13 0 29 -8 36 -19 11 -15 28 -18 98 -20 46
-1 87 -7 91 -12 3 -5 76 -11 162 -14 217 -5 267 -12 295 -42 12 -13 22 -28 22
-33 0 -15 50 -60 65 -60 8 0 15 -4 15 -8 0 -4 87 -18 193 -30 105 -12 212 -25
237 -28 60 -8 130 -12 218 -13 70 -1 72 -2 72 -26 0 -14 5 -25 10 -25 6 0 16
-11 22 -25 6 -14 19 -25 30 -25 10 0 18 -6 18 -13 0 -6 16 -17 35 -23 19 -6
35 -7 35 -3 0 16 29 9 39 -9 8 -15 24 -17 110 -15 56 0 101 -3 101 -8 0 -5 28
-9 63 -9 34 0 103 -5 152 -11 50 -5 104 -11 120 -12 22 -1 30 -7 29 -19 -1
-11 5 -18 15 -18 27 0 139 -74 119 -78 -34 -7 -18 -22 22 -22 30 0 40 -4 40
-16 0 -14 10 -15 75 -9 65 6 76 4 81 -10 6 -15 24 -16 138 -15 72 1 156 -1
186 -4 30 -3 68 -5 84 -5 21 0 39 -11 63 -37 39 -43 39 -44 13 -44 -11 0 -20
-3 -20 -6 0 -15 37 -33 68 -34 18 0 40 -8 52 -20 11 -11 29 -20 40 -20 11 0
20 -4 20 -10 0 -5 9 -10 20 -10 11 0 20 -4 20 -10 0 -5 8 -10 18 -10 41 0 43
-35 40 -860 l-3 -785 -47 -3 c-43 -3 -48 -5 -48 -28 0 -21 -4 -24 -40 -24 -22
0 -40 -4 -40 -10 0 -7 -885 -10 -2636 -10 l-2637 0 -46 35 -46 35 3 7125 2
7125 25 0 c22 0 25 4 25 38 0 20 3 47 6 60 9 31 42 29 54 -4z m-6615 -721 c11
-7 37 -13 59 -13 26 0 50 -8 72 -25 53 -40 62 -53 69 -95 5 -30 11 -40 26 -40
16 0 19 -7 19 -40 0 -38 2 -40 30 -40 28 0 30 -2 30 -39 0 -36 3 -40 28 -43
23 -3 27 -8 30 -40 2 -21 7 -38 13 -38 5 0 9 -18 9 -40 0 -22 5 -40 10 -40 6
0 10 -18 10 -40 0 -22 4 -40 9 -40 6 0 11 -17 13 -37 3 -36 5 -38 41 -41 36
-3 37 -4 37 -42 0 -21 -5 -40 -12 -42 -8 -3 -9 -11 -3 -24 8 -18 9 -18 12 4 3
12 10 22 18 22 9 0 15 -23 19 -80 3 -44 9 -116 12 -160 4 -54 10 -80 19 -80
18 0 28 -1121 17 -1874 -8 -528 -11 -590 -26 -601 -10 -8 -16 -26 -16 -49 0
-20 -4 -36 -9 -36 -5 0 -13 -36 -17 -80 -7 -79 -7 -80 -35 -80 -25 0 -28 -4
-31 -37 -2 -31 -7 -39 -25 -41 -22 -3 -23 -8 -23 -83 0 -46 -4 -79 -10 -79 -6
0 -10 -46 -10 -119 0 -66 -4 -121 -9 -123 -6 -2 -15 -61 -22 -133 -12 -134
-25 -185 -46 -185 -8 0 -13 -13 -13 -34 0 -41 -13 -51 -57 -47 l-33 3 0 -76
c0 -41 -4 -78 -10 -81 -5 -3 -10 -42 -10 -86 0 -46 -4 -79 -10 -79 -5 0 -10
-18 -10 -40 0 -33 -3 -40 -20 -40 -16 0 -20 -7 -20 -34 0 -37 -12 -46 -61 -46
-27 0 -29 -2 -29 -40 0 -28 -4 -40 -14 -40 -10 0 -16 -13 -18 -37 -2 -31 -7
-39 -25 -41 -21 -3 -23 -9 -23 -55 0 -29 -3 -89 -7 -134 l-6 -83 -38 0 c-35 0
-39 -3 -39 -25 0 -15 -6 -25 -15 -25 -23 0 -65 -49 -65 -75 0 -15 -15 -38 -40
-61 -22 -21 -40 -43 -40 -51 0 -7 -9 -13 -20 -13 -11 0 -20 -4 -20 -10 0 -5
-9 -10 -21 -10 -14 0 -19 -5 -16 -14 4 -10 1 -13 -9 -9 -11 4 -14 -4 -14 -36
0 -34 -3 -41 -20 -41 -11 0 -20 -7 -20 -15 0 -8 -4 -15 -10 -15 -5 0 -10 -15
-10 -32 0 -27 -8 -39 -40 -62 -31 -23 -37 -32 -28 -43 7 -9 9 -44 6 -102 -5
-87 1 -118 29 -134 8 -5 13 -26 13 -52 0 -34 4 -45 16 -45 8 0 28 -13 43 -28
26 -25 36 -28 112 -31 46 -1 86 -7 87 -12 2 -5 56 -9 120 -9 119 0 229 -13
244 -28 4 -4 -1 -17 -11 -29 -19 -20 -19 -21 2 -32 12 -6 34 -15 50 -21 15 -5
27 -14 27 -20 0 -5 11 -10 25 -10 14 0 25 -4 25 -10 0 -5 18 -10 40 -10 38 0
40 -2 40 -30 0 -27 3 -30 30 -30 28 0 30 -2 30 -41 0 -30 4 -40 13 -36 10 4
13 -2 9 -19 -4 -22 -1 -24 37 -24 34 0 41 -3 41 -20 0 -13 7 -20 20 -20 18 0
20 -7 20 -80 0 -73 2 -80 20 -80 16 0 20 -7 20 -36 0 -27 5 -37 20 -41 11 -3
20 -14 20 -24 0 -11 5 -19 10 -19 6 0 10 -9 10 -19 0 -11 4 -21 8 -23 14 -6
52 -66 52 -82 0 -8 9 -20 19 -25 16 -9 19 -23 20 -108 1 -53 5 -101 10 -107
11 -15 31 -177 31 -255 0 -61 1 -63 23 -59 30 6 47 -13 47 -53 0 -28 2 -31 28
-27 26 4 27 3 23 -39 -2 -33 1 -43 11 -43 12 0 16 -24 22 -112 11 -201 19
-1620 11 -2120 -7 -468 -8 -488 -26 -488 -15 0 -19 -8 -19 -40 0 -22 -4 -40
-10 -40 -5 0 -10 -16 -10 -35 0 -29 -4 -36 -25 -41 -21 -5 -25 -12 -25 -45 0
-28 -4 -39 -15 -39 -10 0 -15 -10 -15 -34 0 -19 -4 -38 -10 -41 -5 -3 -10 -24
-10 -46 0 -28 -4 -39 -15 -39 -11 0 -15 -11 -15 -40 0 -23 5 -40 11 -40 14 0
3 -138 -12 -156 -5 -7 -9 -75 -8 -153 1 -132 -1 -143 -20 -160 -15 -13 -21
-30 -21 -60 0 -47 -35 -111 -62 -111 -40 0 -48 -11 -48 -64 0 -79 -23 -256
-33 -256 -5 0 -6 -33 -2 -80 4 -45 3 -80 -1 -79 -5 1 -19 1 -31 0 -20 -1 -23
-7 -23 -41 0 -39 -1 -40 -37 -41 -21 -1 -44 -1 -50 0 -9 1 -13 -12 -13 -39 0
-34 -3 -40 -21 -40 -20 0 -21 -3 -14 -80 5 -56 4 -80 -4 -80 -6 0 -12 -19 -12
-42 -1 -24 -4 -33 -6 -20 -4 18 -11 22 -44 22 l-39 0 0 -60 0 -60 -34 0 -34 0
-7 -87 -7 -88 -43 -33 c-26 -20 -53 -32 -72 -32 -40 0 -97 -52 -88 -81 4 -11
-2 -30 -14 -48 -12 -16 -21 -35 -21 -43 0 -8 -15 -25 -32 -38 -36 -27 -36 -27
-76 -29 -20 -1 -33 -9 -42 -26 -8 -14 -24 -28 -37 -31 -14 -4 -23 -14 -23 -25
0 -40 -76 -58 -335 -79 -107 -9 -175 -27 -175 -47 0 -7 -4 -13 -10 -13 -5 0
-10 -8 -10 -17 0 -10 -14 -29 -30 -42 -17 -13 -30 -29 -30 -37 0 -11 -20 -14
-92 -14 -51 0 -156 -5 -233 -11 -77 -5 -183 -12 -235 -14 -131 -5 -320 -26
-320 -37 0 -4 -810 -8 -1800 -8 -1193 0 -1800 3 -1800 10 0 6 -12 10 -26 10
-15 0 -34 8 -43 18 -9 9 -29 18 -45 19 -35 1 -61 23 -28 23 l22 0 0 4323 c0
2377 0 4338 0 4358 0 28 5 38 20 42 15 4 20 14 20 40 0 26 5 36 20 40 15 4 20
14 20 41 0 51 44 96 94 96 42 0 62 15 72 54 3 14 10 26 15 26 5 0 10 8 10 18
1 16 2 16 6 0 9 -34 23 -18 23 26 0 40 3 45 30 55 17 5 30 16 30 24 0 8 18 20
40 27 26 8 39 18 36 26 -3 8 0 11 10 7 10 -4 14 3 14 30 0 30 4 37 29 45 16 6
38 19 49 30 11 11 30 26 42 32 11 6 18 15 15 20 -3 6 1 7 9 4 13 -5 16 1 16
30 0 20 5 36 10 36 6 0 10 6 10 13 0 7 9 18 20 25 11 7 20 21 20 32 0 11 7 20
15 20 9 0 26 9 38 20 12 12 23 16 25 11 2 -5 14 0 28 12 13 11 22 27 19 35 -6
15 11 42 26 42 5 0 9 -9 9 -20 0 -11 4 -20 8 -20 7 0 18 28 38 98 2 7 11 15
21 19 19 7 43 31 59 58 15 27 34 30 34 6 0 -12 5 -21 10 -21 6 0 10 9 10 21 0
28 18 59 35 59 9 0 15 13 17 37 2 28 8 39 22 41 11 3 28 14 38 26 15 18 19 19
27 6 9 -13 12 -12 28 3 10 10 27 24 38 32 20 14 20 14 -2 15 -27 0 -29 12 -6
31 13 11 17 11 21 1 3 -9 14 -3 33 17 16 17 29 29 29 26 0 -3 16 11 36 30 35
34 45 39 72 36 6 -1 12 3 12 9 0 5 -13 10 -30 10 -37 0 -39 12 -5 30 14 7 25
17 25 22 0 4 16 8 35 8 33 0 34 1 28 30 -5 27 0 36 41 73 25 24 46 51 46 60 0
9 7 17 15 17 16 0 65 46 65 61 0 5 7 12 16 16 24 9 64 52 64 68 0 8 7 15 15
15 18 0 65 47 65 65 0 10 11 15 34 15 33 0 35 2 38 37 2 27 8 39 21 41 20 4
67 48 67 63 0 5 7 12 16 16 24 9 64 52 64 68 0 8 7 15 15 15 18 0 64 49 65 68
0 6 6 12 13 12 18 1 67 47 67 65 0 11 10 15 35 15 29 0 35 4 35 21 0 25 65 93
83 86 6 -2 24 8 38 22 28 28 49 37 49 21 0 -6 5 -10 10 -10 6 0 10 9 10 19 0
25 35 107 49 115 6 4 11 16 11 27 0 10 7 19 15 19 18 0 65 47 65 65 0 10 11
15 35 15 34 0 35 1 35 39 0 33 6 44 43 77 23 21 42 42 42 45 0 4 18 21 39 39
22 17 41 38 42 45 3 17 -12 20 -19 5 -3 -6 -4 -5 -3 2 2 7 11 12 22 11 18 -1
79 43 79 58 0 4 18 22 40 39 22 18 39 36 38 40 -1 4 9 5 22 2 23 -4 25 -1 25
35 0 33 4 42 26 51 42 20 94 66 82 73 -6 4 -7 12 -4 18 4 6 12 9 17 5 10 -6
74 43 74 57 0 4 16 20 35 36 47 38 125 117 123 124 -1 3 8 5 20 5 19 -1 23 6
27 44 4 39 9 45 30 48 24 4 85 48 85 63 0 4 18 21 40 39 22 17 40 37 40 43 0
7 3 12 6 12 8 0 74 57 74 64 2 21 18 50 31 55 12 5 12 9 2 26 -11 18 -10 23 5
35 11 7 25 11 33 8 9 -3 14 2 14 16 0 12 -5 21 -11 21 -5 0 -7 5 -3 11 4 8 9
7 15 -2 6 -10 12 -9 29 6 12 11 36 24 53 30 18 5 32 15 33 20 1 18 27 65 36
65 4 0 8 7 8 15 0 8 9 15 19 15 10 0 21 6 24 13 9 24 87 70 118 69 17 0 39 6
49 15 21 18 86 43 113 43 13 0 17 9 17 40 0 57 22 85 83 105 28 9 58 24 67 33
28 31 62 45 70 31 6 -9 16 -6 38 12 34 26 40 39 18 39 -8 0 -18 5 -21 10 -8
13 22 43 35 35 5 -3 10 3 10 14 0 16 6 21 28 21 30 0 72 23 115 64 19 18 39
26 63 26 33 0 34 1 34 41 0 38 3 42 40 57 25 11 40 24 40 35 0 16 15 17 179
17 214 0 301 8 301 26 0 15 22 10 55 -13z m748 -3961 c23 -72 46 -187 59 -292
7 -63 12 -459 15 -1185 3 -965 2 -1099 -12 -1168 -9 -44 -20 -86 -25 -95 -5
-10 -19 -38 -31 -64 -20 -43 -26 -48 -56 -48 -19 0 -33 5 -34 13 0 9 -2 9 -6
-1 -6 -15 -39 23 -44 52 -2 10 -19 26 -36 36 -45 24 -64 41 -57 51 3 5 -16 9
-42 9 -41 0 -46 2 -41 20 3 11 1 18 -4 15 -5 -4 -7 7 -5 24 2 23 0 28 -12 23
-11 -4 -14 -1 -9 11 7 18 -11 67 -24 67 -4 0 -11 37 -15 82 -8 92 -28 122 -89
134 -44 8 -102 57 -121 102 -20 49 -40 69 -89 91 -22 10 -53 33 -68 51 -48 57
-56 90 -58 238 0 75 -6 146 -11 156 -8 15 -8 21 1 24 6 2 11 12 11 23 0 17 8
19 78 19 62 0 82 4 95 18 18 20 28 95 30 248 3 125 9 140 66 149 20 3 52 10
72 15 l37 10 7 118 c5 80 13 131 26 161 10 24 19 48 19 53 0 17 41 68 50 63 5
-3 17 3 27 13 24 25 51 34 57 19 2 -7 5 -2 5 10 1 12 7 28 14 35 24 24 28 60
41 330 7 161 16 271 23 280 6 7 17 33 24 57 7 24 21 48 31 55 10 6 18 16 18
23 0 7 6 10 14 7 7 -3 17 3 20 13 7 17 8 17 21 0 7 -10 20 -39 28 -65z m-6276
-7504 c-1 -1179 -2 -217 -2 2137 0 2354 1 3318 2 2143 2 -1175 2 -3101 0
-4280z"/>
<path d="M8150 14500 c-20 -3 -42 -10 -49 -14 -8 -5 -16 -4 -20 3 -7 11 -161
-129 -161 -147 0 -13 -69 -40 -120 -48 -24 -4 -40 -12 -40 -20 0 -12 -48 -21
-82 -15 -5 0 -8 -15 -8 -35 0 -19 -6 -41 -12 -49 -7 -7 -21 -24 -32 -39 -10
-14 -22 -24 -26 -21 -4 3 -22 -2 -39 -11 -17 -8 -35 -13 -40 -10 -10 6 -89
-68 -108 -102 -7 -12 -13 -28 -13 -36 0 -16 -27 -29 -42 -20 -5 3 -16 -3 -24
-15 -8 -12 -26 -21 -39 -21 -25 0 -79 -42 -68 -53 3 -4 -2 -9 -11 -13 -9 -3
-16 -12 -16 -20 0 -10 -12 -14 -40 -14 -39 0 -53 -13 -27 -24 8 -3 6 -9 -8
-17 -11 -7 -32 -25 -47 -40 -19 -18 -34 -25 -48 -22 -13 4 -27 -3 -40 -18 -16
-20 -21 -22 -29 -9 -8 12 -13 11 -28 -6 -10 -11 -26 -23 -36 -27 -9 -4 -17
-10 -16 -14 8 -48 -4 -80 -41 -108 -21 -16 -39 -36 -40 -42 0 -8 -15 -13 -40
-13 -26 0 -40 -4 -40 -13 0 -7 -13 -23 -30 -35 -16 -13 -30 -31 -30 -42 0 -10
-4 -22 -10 -25 -5 -3 -10 -15 -10 -26 0 -10 -4 -19 -10 -19 -5 0 -10 -18 -10
-39 0 -22 -4 -42 -9 -45 -4 -3 -9 -489 -10 -1081 l-2 -1075 20 0 c16 0 21 -6
21 -25 0 -14 5 -25 10 -25 6 0 10 -7 10 -15 0 -8 7 -15 16 -15 9 0 24 -8 33
-19 34 -39 79 -45 210 -31 106 11 121 15 121 31 0 11 7 19 15 19 18 0 65 47
65 65 0 8 7 15 15 15 18 0 65 47 65 65 0 15 34 21 88 16 14 -1 31 7 42 21 16
19 21 20 29 9 7 -11 15 -8 43 14 28 22 35 35 37 68 1 23 4 43 5 45 2 2 28 4
57 4 47 1 56 5 88 39 26 28 46 39 70 41 24 2 45 14 72 40 21 21 43 38 48 38
15 0 61 49 61 65 0 12 14 15 60 15 33 0 60 4 60 10 0 6 6 10 14 10 16 0 26 21
26 53 1 30 78 87 116 87 22 0 40 11 66 39 20 22 39 37 42 34 3 -4 6 -1 6 6 0
7 4 10 9 7 12 -8 84 62 76 74 -3 6 1 7 9 4 13 -5 16 2 16 35 0 34 3 41 20 41
11 0 20 7 20 15 0 8 3 15 8 15 15 0 52 67 52 94 0 31 16 66 30 66 6 0 10 -7
10 -15 0 -8 9 -15 20 -15 17 0 20 7 20 40 0 29 4 40 15 40 11 0 15 11 15 39 0
33 4 40 23 43 16 2 23 11 25 33 4 33 27 56 48 48 9 -3 14 2 14 16 0 12 5 21
10 21 6 0 10 8 10 19 0 10 9 21 20 24 15 4 20 14 20 41 0 29 4 36 20 36 17 0
20 7 20 41 0 39 -2 41 -25 37 -24 -5 -25 -3 -25 38 0 24 -4 44 -10 44 -16 0
-12 77 4 83 8 3 17 21 19 39 4 30 4 29 3 -4 -1 -21 2 -38 6 -38 5 0 8 18 8 40
0 22 5 40 10 40 6 0 10 33 10 80 0 61 3 80 14 80 14 0 26 79 26 180 0 49 3 58
20 63 18 5 20 14 20 77 0 63 2 72 20 77 16 4 20 14 20 44 0 32 3 39 20 39 19
0 20 7 20 160 0 100 -4 160 -10 160 -5 0 -10 16 -10 35 0 22 -6 38 -15 41 -10
4 -15 20 -15 45 0 28 -4 39 -15 39 -12 0 -15 16 -15 80 0 71 -2 80 -19 80 -15
0 -19 11 -25 61 -3 34 -6 88 -6 120 0 41 -4 59 -12 59 -7 0 -21 20 -31 43 -19
48 -71 81 -110 72 -16 -4 -29 1 -45 18 -21 22 -30 24 -150 27 -70 1 -156 3
-192 4 -36 1 -81 -1 -100 -4z"/>
<path d="M8046 9650 c-83 -3 -121 -9 -124 -17 -2 -7 -12 -13 -23 -13 -25 0
-59 -35 -59 -60 0 -13 -7 -20 -20 -20 -10 0 -47 -18 -81 -40 -55 -35 -88 -45
-139 -42 -8 0 -42 -8 -74 -19 -33 -10 -81 -19 -108 -19 -37 0 -50 -4 -55 -17
-4 -10 -23 -34 -44 -53 -20 -19 -39 -44 -41 -54 -5 -28 -61 -44 -155 -45 -67
-1 -83 -4 -83 -16 0 -14 -28 -20 -79 -18 -7 1 -27 -12 -44 -28 -16 -16 -36
-29 -43 -29 -8 0 -14 -8 -14 -18 0 -20 -64 -82 -85 -82 -8 0 -17 -4 -20 -10
-3 -5 -15 -10 -25 -10 -11 0 -40 -15 -64 -32 l-45 -33 0 -77 c-1 -47 -5 -78
-11 -78 -7 0 -10 -356 -10 -1120 1 -682 5 -1120 11 -1120 5 0 9 -18 9 -39 0
-31 4 -41 20 -46 15 -5 20 -15 20 -40 0 -18 -5 -35 -11 -37 -24 -8 33 -73 86
-98 49 -23 62 -25 173 -22 110 3 122 5 127 23 4 10 13 19 20 19 19 0 65 47 65
65 0 9 10 15 24 15 34 0 56 10 56 25 0 9 39 14 152 17 125 4 153 8 163 22 10
13 33 16 147 16 167 0 258 9 258 25 0 6 18 18 40 25 28 9 39 18 36 27 -3 8 -2
12 3 8 5 -3 24 10 43 27 l33 33 3 -32 c4 -43 22 -43 22 0 0 32 4 35 80 70 68
32 90 37 150 37 40 0 70 4 70 10 0 6 8 10 18 10 9 0 23 9 30 20 16 26 32 26
32 0 0 -11 5 -20 10 -20 6 0 10 16 10 36 0 25 8 44 30 67 16 18 30 35 30 39 0
4 13 21 29 39 23 24 29 39 24 59 -3 19 0 29 11 33 9 4 16 16 16 27 0 16 7 20
33 20 22 0 47 12 82 40 28 22 55 40 61 40 6 0 16 11 22 25 6 14 18 25 27 25 8
0 15 7 15 15 0 8 3 15 8 15 8 0 32 48 32 66 0 7 7 17 15 21 9 6 17 33 21 81 6
61 10 72 25 72 15 0 19 8 19 39 0 26 5 41 16 45 11 4 15 17 14 43 -3 47 19
111 31 92 6 -11 9 -10 15 4 3 9 12 17 20 17 9 0 14 12 14 35 0 29 5 37 25 45
25 9 25 11 25 125 0 70 -4 115 -10 115 -15 0 -12 78 3 83 19 6 15 930 -4 954
-9 11 -10 14 -1 9 9 -5 12 4 12 33 0 34 -3 41 -19 41 -11 0 -22 -6 -24 -12 -4
-10 -6 -10 -6 0 -1 6 -8 12 -16 12 -10 0 -15 10 -15 28 0 17 -9 34 -25 46 -35
26 -55 71 -55 123 0 36 -3 43 -20 43 -17 0 -20 7 -20 39 0 22 -7 46 -15 54 -7
8 -17 26 -21 41 -4 17 -13 26 -25 26 -14 0 -19 7 -19 25 0 23 -4 25 -46 25
-40 0 -99 21 -114 42 -19 25 -344 34 -674 18z"/>
<path d="M13570 22030 c-10 -6 -11 -10 -2 -10 8 0 12 -16 12 -47 0 -41 4 -51
36 -80 26 -24 46 -33 70 -33 33 0 34 1 35 43 2 80 -3 111 -19 124 -20 15 -111
17 -132 3z"/>
<path d="M13841 21852 c-1 -10 -11 -12 -42 -7 -45 8 -46 5 -24 -47 4 -11 3
-18 -4 -18 -6 0 -11 8 -11 17 0 14 -2 15 -12 4 -10 -11 -10 -14 0 -18 6 -3 12
-11 12 -18 0 -19 47 -65 65 -65 8 0 15 -4 15 -10 0 -5 18 -10 39 -10 l39 0 4
58 c3 62 -17 102 -53 102 -10 0 -20 6 -22 13 -4 9 -6 9 -6 -1z"/>
<path d="M13993 21643 c-9 -3 -13 -26 -13 -64 0 -47 3 -59 16 -59 8 0 29 -13
45 -30 29 -28 31 -29 55 -14 19 13 24 26 25 58 2 61 -1 78 -17 93 -14 15 -89
25 -111 16z"/>
<path d="M14217 21430 c-16 -5 -35 -16 -41 -26 -8 -11 -18 -14 -26 -9 -7 4 2
-13 20 -40 26 -38 30 -49 19 -56 -25 -15 32 -61 83 -66 l43 -5 11 44 c14 53 7
127 -14 151 -16 18 -49 21 -95 7z"/>
<path d="M14360 21226 c-31 -14 -27 -75 5 -101 14 -11 35 -29 47 -40 13 -12
18 -14 14 -5 -5 11 -4 10 6 -1 8 -10 29 -17 51 -17 36 0 37 1 38 37 1 20 2 49
3 66 3 46 -33 73 -94 71 -27 0 -59 -5 -70 -10z"/>
<path d="M7023 2284 c-41 -8 -126 -39 -156 -57 l-37 -23 28 -29 c37 -39 75
-91 101 -138 18 -32 20 -44 12 -75 -6 -20 -15 -71 -21 -112 -5 -41 -19 -124
-29 -185 -11 -60 -25 -148 -31 -195 -16 -109 -34 -190 -61 -265 -11 -33 -23
-73 -26 -90 -2 -16 -8 -39 -13 -50 -5 -11 -18 -81 -30 -155 -27 -166 -47 -200
-140 -236 -54 -21 -140 -75 -140 -88 0 -12 26 -32 82 -61 46 -24 54 -25 246
-25 170 0 207 3 253 19 75 26 119 50 119 64 0 7 -16 34 -35 61 -58 82 -69 129
-56 254 36 342 31 321 85 363 39 31 82 26 172 -17 55 -26 81 -46 99 -72 42
-66 75 -194 117 -456 20 -123 26 -141 48 -157 59 -44 364 -78 423 -48 26 14
77 60 77 70 0 20 -59 74 -107 96 -65 31 -100 75 -138 173 -15 41 -38 91 -50
110 -28 45 -49 92 -70 155 -13 40 -15 71 -10 155 11 168 19 177 205 239 105
36 145 65 154 116 4 18 18 61 32 96 26 63 26 65 15 174 -11 96 -17 118 -48
174 -52 94 -106 148 -182 182 l-65 30 -408 2 c-224 1 -411 1 -415 1z m650
-184 c77 -36 105 -75 128 -176 11 -49 25 -97 30 -108 7 -12 7 -21 1 -25 -5 -3
-43 -53 -85 -111 -42 -58 -82 -113 -89 -123 -23 -32 -145 -70 -228 -71 -66 0
-83 3 -135 31 -92 47 -111 76 -89 133 8 19 27 85 44 145 67 246 64 239 114
279 54 44 56 44 169 45 78 1 106 -3 140 -19z"/>
<path d="M9310 2258 c-85 -22 -94 -28 -116 -75 -20 -41 -51 -64 -129 -92 -74
-28 -118 -60 -150 -111 -14 -22 -49 -54 -78 -73 -63 -41 -99 -82 -127 -145
-12 -26 -38 -67 -59 -92 -50 -60 -56 -72 -81 -170 -53 -204 -54 -371 -3 -595
27 -123 40 -143 117 -182 27 -13 80 -54 118 -89 42 -40 95 -78 136 -97 l67
-32 212 -3 c186 -3 225 0 310 18 53 12 104 26 113 33 39 31 40 34 20 59 -26
34 -91 46 -315 58 -193 10 -241 17 -308 45 -42 17 -59 41 -121 170 -58 121
-65 188 -36 385 27 191 75 333 137 402 24 27 59 79 77 117 34 66 55 88 145
154 27 19 55 52 70 82 43 83 65 89 321 93 262 4 271 3 293 -43 9 -20 17 -47
17 -60 0 -38 88 -195 109 -195 16 0 81 149 81 187 0 56 -62 143 -102 143 -10
0 -27 13 -39 29 -53 72 -179 101 -427 100 -142 -1 -192 -5 -252 -21z"/>
<path d="M12284 2269 c-31 -9 -84 -54 -84 -71 0 -16 67 -78 84 -78 30 0 141
-59 177 -94 31 -30 38 -46 52 -120 19 -96 22 -162 7 -171 -5 -3 -10 -15 -10
-27 0 -11 -8 -22 -18 -24 -21 -6 -52 -58 -52 -88 0 -13 8 -30 19 -40 16 -15
21 -15 47 -2 16 8 58 27 94 42 77 33 113 69 141 144 17 46 20 73 17 170 -3
102 -6 122 -32 177 -35 76 -94 134 -172 168 -48 21 -71 25 -148 24 -50 0 -105
-5 -122 -10z"/>
<path d="M14044 2261 c-34 -21 -64 -58 -64 -79 0 -7 11 -24 25 -37 19 -20 34
-25 73 -25 56 0 210 43 231 65 24 24 -12 51 -101 74 -96 26 -124 26 -164 2z"/>
<path d="M15239 2265 c-20 -7 -51 -21 -69 -30 -40 -21 -269 -250 -300 -300
-12 -20 -41 -89 -65 -155 -28 -81 -55 -137 -83 -172 -22 -29 -48 -71 -57 -93
-44 -105 -46 -123 -52 -426 l-6 -296 29 -53 c29 -54 70 -94 85 -84 5 3 18 -15
29 -40 37 -82 109 -116 250 -116 l97 0 45 40 c32 27 48 50 52 74 8 41 42 72
97 86 44 12 87 62 114 133 12 32 36 64 75 100 52 48 60 60 78 127 12 41 28
111 36 155 8 44 29 145 47 225 35 164 36 185 9 317 -19 92 -21 95 -79 154 -32
33 -61 57 -63 52 -6 -10 -15 -46 -73 -298 -44 -188 -97 -359 -117 -371 -21
-13 -58 -110 -88 -234 -37 -154 -50 -187 -99 -250 -40 -51 -39 -50 -101 -86
-94 -56 -216 -64 -241 -18 -32 61 2 351 52 439 9 17 32 56 52 88 41 67 60 122
81 232 20 105 52 244 65 277 6 15 25 44 44 65 40 44 77 114 102 193 21 67 48
98 91 106 48 9 138 -15 196 -52 50 -33 52 -33 65 -14 8 11 18 52 22 91 7 69 6
72 -20 98 -44 45 -220 66 -300 36z"/>
<path d="M16531 2270 c-60 -14 -80 -46 -106 -166 l-23 -109 40 -37 39 -38 224
0 223 0 43 33 c38 29 46 42 69 117 15 47 32 95 39 108 11 20 9 25 -11 42 -13
11 -27 19 -31 20 -4 0 -27 9 -49 20 -38 18 -61 20 -232 19 -105 -1 -206 -5
-225 -9z"/>
<path d="M17950 2273 c-27 -5 -90 -60 -90 -79 0 -16 67 -74 84 -74 42 0 188
-89 204 -125 24 -49 52 -201 43 -230 -14 -50 -34 -85 -46 -85 -13 0 -45 -62
-45 -88 0 -10 6 -27 14 -37 13 -18 16 -18 47 -3 19 9 61 28 94 43 33 14 67 30
75 34 8 4 32 40 53 80 36 72 37 76 37 188 0 104 -2 119 -29 177 -36 79 -97
147 -153 170 -24 10 -51 22 -60 27 -18 9 -181 10 -228 2z"/>
<path d="M19469 2260 c-74 -30 -111 -56 -164 -119 -27 -32 -75 -79 -105 -104
-62 -51 -116 -141 -145 -242 -21 -73 -56 -143 -104 -210 -21 -27 -47 -81 -59
-120 -30 -96 -44 -306 -36 -524 7 -172 7 -174 38 -220 17 -25 44 -52 59 -59
16 -8 37 -32 49 -57 17 -35 33 -49 81 -74 54 -28 68 -31 154 -31 64 0 103 5
123 15 35 18 80 75 80 101 1 30 35 63 81 80 60 20 87 48 121 124 20 44 46 81
84 116 49 46 57 59 79 135 13 46 29 113 34 149 6 36 17 90 25 120 8 30 20 91
26 135 7 44 17 88 21 97 10 18 -5 156 -21 198 -6 14 -11 40 -12 58 -1 19 -8
32 -15 32 -8 0 -17 8 -20 18 -9 22 -53 66 -75 75 -20 7 -26 -10 -78 -238 -55
-241 -70 -299 -90 -342 -11 -24 -20 -45 -20 -49 0 -3 -13 -24 -28 -47 -33 -50
-42 -75 -82 -237 -17 -69 -46 -151 -63 -184 -57 -107 -178 -180 -292 -178 -80
2 -94 20 -95 119 0 161 38 314 104 412 48 71 71 137 105 308 43 209 55 244
108 305 40 46 65 95 93 180 11 36 30 74 42 84 42 39 207 15 253 -36 10 -11 23
-20 29 -20 21 0 46 57 52 117 6 55 4 60 -23 86 -49 45 -228 61 -314 27z"/>
<path d="M13790 2060 c-47 -11 -91 -19 -97 -20 -7 0 -35 -30 -62 -67 -45 -63
-93 -113 -107 -113 -3 0 -20 -11 -38 -25 -23 -18 -51 -61 -90 -140 -34 -68
-76 -137 -107 -172 -28 -32 -57 -73 -65 -91 -21 -51 -36 -281 -32 -480 l5
-179 37 -56 c21 -32 50 -61 67 -69 19 -8 32 -23 36 -38 6 -30 73 -82 128 -99
83 -26 359 3 422 44 12 8 38 46 58 84 21 39 64 97 101 135 46 47 75 89 100
141 32 70 34 82 34 176 0 97 -2 106 -36 178 -46 94 -104 153 -176 176 -29 10
-57 21 -62 26 -6 5 -19 9 -31 9 -31 0 -130 66 -144 96 -12 27 -10 38 19 109 5
11 18 49 30 84 30 90 46 119 79 135 15 8 43 32 60 52 27 30 32 43 27 67 -6 32
-31 57 -56 56 -8 0 -53 -9 -100 -19z m4 -790 c26 -12 61 -34 77 -47 29 -25 29
-26 29 -133 0 -88 -3 -112 -18 -131 -23 -30 -77 -145 -86 -182 -9 -38 -62 -85
-103 -93 -52 -10 -242 5 -274 21 -37 20 -42 42 -34 144 9 122 21 160 64 203
43 42 81 98 100 144 13 32 50 72 86 93 29 17 105 8 159 -19z"/>
<path d="M16288 1707 c-32 -44 -58 -94 -58 -110 0 -21 51 -63 118 -97 35 -17
78 -47 95 -67 18 -20 58 -63 89 -96 67 -70 94 -122 103 -203 8 -72 8 -270 1
-316 -7 -40 18 -75 61 -84 40 -8 77 35 93 106 14 63 63 243 85 311 13 40 13
52 1 85 -7 22 -17 64 -21 94 -8 56 -101 266 -128 288 -20 17 -129 48 -198 57
-55 6 -170 38 -201 55 -13 8 -22 2 -40 -23z"/>
<path d="M10603 1633 l-38 -38 2 -105 2 -105 37 -34 c34 -31 39 -33 88 -26 87
11 167 37 181 59 12 18 15 130 6 213 -2 19 -38 34 -126 54 -108 25 -110 24
-152 -18z"/>
<path d="M12030 1456 c-19 -13 -43 -33 -54 -44 -18 -21 -18 -21 10 -48 31 -29
99 -63 126 -64 34 0 121 -55 165 -104 96 -107 117 -186 84 -319 -11 -47 -21
-96 -21 -109 0 -30 26 -45 88 -54 47 -6 51 -4 91 31 31 28 41 45 41 69 1 17 7
58 15 91 8 33 18 111 21 173 7 109 6 114 -17 138 -32 35 -104 84 -123 84 -26
0 -75 50 -81 83 -14 74 -66 97 -211 96 -86 0 -104 -3 -134 -23z"/>
<path d="M17690 1452 c-73 -47 -77 -56 -40 -91 35 -32 82 -54 146 -71 86 -21
184 -122 224 -227 24 -63 22 -129 -6 -208 -31 -91 -2 -145 81 -145 38 0 51 6
85 36 29 27 40 44 40 66 0 16 9 67 20 112 16 62 20 108 18 182 l-3 98 -60 48
c-32 26 -66 48 -76 48 -29 0 -68 40 -81 81 -7 26 -24 51 -47 67 -32 25 -43 27
-145 30 -108 3 -112 2 -156 -26z"/>
<path d="M10420 853 c-76 -50 -80 -58 -80 -168 l0 -101 33 -30 c64 -60 75 -61
166 -18 l82 39 1 100 c0 55 0 105 -1 111 -1 12 -66 47 -130 69 -52 18 -42 18
-71 -2z"/>
<path d="M16064 847 c-22 -12 -51 -30 -64 -39 l-24 -18 13 -102 c14 -111 20
-124 83 -164 33 -21 50 -24 137 -24 104 0 266 29 309 56 13 9 22 24 22 40 0
32 -38 49 -154 67 -98 16 -125 31 -169 94 -43 61 -57 77 -87 96 -23 14 -28 14
-66 -6z"/>
<path d="M11640 805 c-17 -21 -14 -225 4 -243 27 -27 158 -54 286 -59 106 -5
139 -2 225 17 123 28 153 51 139 102 l-10 33 -124 10 c-149 13 -183 26 -247
101 l-45 54 -108 0 c-83 0 -110 -3 -120 -15z"/>
<path d="M17301 806 c-16 -19 -22 -217 -7 -232 41 -40 191 -74 330 -74 114 0
267 30 306 59 31 23 36 51 13 79 -16 20 -30 23 -126 27 -133 7 -179 25 -243
101 l-46 54 -108 0 c-80 0 -111 -4 -119 -14z"/>
</g>
</svg>
